<svg width="38" height="38" viewBox="0 0 38 38" fill="none" xmlns="http://www.w3.org/2000/svg">
<path fill-rule="evenodd" clip-rule="evenodd" d="M19 9.89583C16.1581 9.89583 13.8542 12.1997 13.8542 15.0417C13.8542 17.8836 16.1581 20.1875 19 20.1875C21.842 20.1875 24.1459 17.8836 24.1459 15.0417C24.1459 12.1997 21.842 9.89583 19 9.89583ZM16.2292 15.0417C16.2292 13.5114 17.4698 12.2708 19 12.2708C20.5303 12.2708 21.7709 13.5114 21.7709 15.0417C21.7709 16.572 20.5303 17.8125 19 17.8125C17.4698 17.8125 16.2292 16.572 16.2292 15.0417Z" fill="#B5C0FF"/>
<path fill-rule="evenodd" clip-rule="evenodd" d="M19 3.5625C12.6603 3.5625 7.52088 8.7019 7.52088 15.0417C7.52088 17.3662 8.21182 19.5294 9.39952 21.337L5.30497 28.429C5.07212 28.8323 5.09651 29.3345 5.36735 29.7133C5.63818 30.0922 6.10547 30.2777 6.56243 30.1879L10.7011 29.3743L12.0658 33.3653C12.2165 33.8059 12.6108 34.1178 13.0743 34.1629C13.5379 34.2081 13.985 33.9781 14.2178 33.5748L18.3025 26.5C18.5332 26.5138 18.7658 26.5208 19 26.5208C19.2343 26.5208 19.4669 26.5138 19.6976 26.5L23.7823 33.5748C24.0154 33.9785 24.4631 34.2085 24.927 34.1628C25.391 34.1171 25.7853 33.8043 25.9351 33.3628L27.293 29.3638L31.4351 30.1874C31.8924 30.2783 32.3605 30.0933 32.632 29.7144C32.9035 29.3354 32.9282 28.8327 32.6951 28.429L28.6006 21.337C29.7883 19.5294 30.4792 17.3662 30.4792 15.0417C30.4792 8.7019 25.3398 3.5625 19 3.5625ZM9.89588 15.0417C9.89588 10.0136 13.972 5.9375 19 5.9375C24.0281 5.9375 28.1042 10.0136 28.1042 15.0417C28.1042 20.0698 24.0281 24.1458 19 24.1458C13.972 24.1458 9.89588 20.0698 9.89588 15.0417ZM15.8077 26.0711C13.9821 25.5436 12.3437 24.5752 11.0151 23.2886L8.66832 27.3535L11.2602 26.8439C11.8429 26.7294 12.4207 27.063 12.6129 27.6249L13.4675 30.1243L15.8077 26.0711ZM24.5288 30.1178L22.1924 26.0711C24.018 25.5436 25.6564 24.5752 26.985 23.2886L29.328 27.3469L26.7349 26.8313C26.1504 26.7151 25.5704 27.05 25.3788 27.6142L24.5288 30.1178Z" fill="#B5C0FF"/>
</svg>
