<svg width="38" height="38" viewBox="0 0 38 38" fill="none" xmlns="http://www.w3.org/2000/svg">
<path fill-rule="evenodd" clip-rule="evenodd" d="M5.9375 12.6666C5.9375 8.513 9.30469 5.14581 13.4583 5.14581H29.2917C30.822 5.14581 32.0625 6.38636 32.0625 7.91665V31.6666C32.0625 33.1969 30.822 34.4375 29.2917 34.4375H11.875C8.59581 34.4375 5.9375 31.7792 5.9375 28.5V12.6666ZM29.6875 7.91665V22.5625H11.875C10.5383 22.5625 9.30485 23.0042 8.3125 23.7495V12.6666C8.3125 9.82468 10.6164 7.52081 13.4583 7.52081H18.5375C18.1206 10.6583 18.1581 13.8419 18.6508 16.9733L18.7496 17.6012C18.8203 18.0509 19.1419 18.4206 19.5775 18.5529C20.0131 18.6852 20.486 18.5568 20.7949 18.2224L22.9583 15.8804L25.1218 18.2224C25.4307 18.5568 25.9036 18.6852 26.3391 18.5529C26.7747 18.4206 27.0964 18.0509 27.1671 17.6012L27.2659 16.9733C27.7586 13.8419 27.7961 10.6583 27.3792 7.52081H29.2917C29.5103 7.52081 29.6875 7.69803 29.6875 7.91665ZM24.9817 7.52081H20.935C20.5912 9.91827 20.5339 12.3471 20.7636 14.7561L21.7953 13.6393C22.4222 12.9607 23.4945 12.9607 24.1214 13.6393L25.1531 14.7561C25.3828 12.3471 25.3255 9.91827 24.9817 7.52081ZM11.875 24.9375H29.6875V31.6666C29.6875 31.8853 29.5103 32.0625 29.2917 32.0625H11.875C9.90749 32.0625 8.3125 30.4675 8.3125 28.5C8.3125 26.5325 9.90749 24.9375 11.875 24.9375Z" fill="#B5C0FF"/>
</svg>
