<svg width="35" height="37" viewBox="0 0 35 37" fill="none" xmlns="http://www.w3.org/2000/svg">
<path fill-rule="evenodd" clip-rule="evenodd" d="M25.117 0.506335C24.8203 0.209647 24.4179 0.0429688 23.9983 0.0429688C23.5787 0.0429688 23.1763 0.209647 22.8796 0.506335L3.48943 19.8965C3.29068 20.0953 3.14846 20.3434 3.07742 20.6154L0.968048 28.691C0.826108 29.2344 0.982917 29.8123 1.38006 30.2094C1.7772 30.6066 2.35513 30.7634 2.89854 30.6215L10.9741 28.5121C11.2461 28.441 11.4942 28.2988 11.693 28.1001L31.0832 8.70988C31.701 8.09206 31.701 7.09037 31.0832 6.47255L25.117 0.506335ZM6.03029 21.8303L23.9983 3.86233L27.7272 7.59121L9.75918 25.5592L4.71193 26.8776L6.03029 21.8303Z" fill="white"/>
<path d="M1.625 33.793C0.751268 33.793 0.0429688 34.5013 0.0429688 35.375C0.0429688 36.2487 0.751268 36.957 1.625 36.957H33.2656C34.1394 36.957 34.8477 36.2487 34.8477 35.375C34.8477 34.5013 34.1394 33.793 33.2656 33.793H1.625Z" fill="white"/>
</svg>
