<svg width="38" height="38" viewBox="0 0 38 38" fill="none" xmlns="http://www.w3.org/2000/svg">
<path fill-rule="evenodd" clip-rule="evenodd" d="M16.6356 2.38768C16.9233 2.05662 17.3701 1.91112 17.7976 2.00927C23.5116 3.32109 26.3998 9.58256 25.7206 15.1846C25.4565 17.3623 24.8043 19.0695 23.8437 20.4278C23.8379 20.4361 23.832 20.4444 23.8261 20.4527C24.0443 20.3454 24.2455 20.2297 24.4339 20.1075C25.3711 19.4992 26.059 18.6964 26.9546 17.6511C27.0629 17.5248 27.1741 17.3949 27.2893 17.2614C27.548 16.9614 27.9393 16.8101 28.3326 16.8582C28.7259 16.9062 29.0693 17.1472 29.2481 17.5007C30.0359 19.0575 30.4792 20.8174 30.4792 22.6775C30.4792 29.0172 25.3398 34.1566 19 34.1566C12.6603 34.1566 7.52087 29.0172 7.52087 22.6775C7.52087 18.6605 9.58508 15.1263 12.7052 13.0768L12.8122 12.969C12.8671 12.9136 12.9274 12.8638 12.9921 12.8203C14.3631 11.8978 15.3475 11.1432 16.0102 10.2559C16.6363 9.41765 17.0209 8.3951 17.0209 6.84414C17.0209 5.69578 16.8088 4.59973 16.4228 3.59109C16.2661 3.18145 16.3479 2.71874 16.6356 2.38768ZM19.2711 5.14708C19.3533 5.70121 19.3959 6.26793 19.3959 6.84414C19.3959 8.85247 18.877 10.3865 17.9131 11.6771C17.0078 12.8892 15.7546 13.82 14.4157 14.7248L14.3013 14.8401C14.2399 14.902 14.172 14.9568 14.0987 15.0038C11.5686 16.6236 9.89587 19.4556 9.89587 22.6775C9.89587 27.7056 13.9719 31.7816 19 31.7816C24.0281 31.7816 28.1042 27.7056 28.1042 22.6775C28.1042 21.8544 27.9953 21.0579 27.7912 20.3009C27.1892 20.9528 26.5247 21.5818 25.7269 22.0997C24.265 23.0484 22.4358 23.5901 19.7917 23.5901C19.2498 23.5901 18.7766 23.2232 18.6416 22.6984C18.5066 22.1736 18.7441 21.6239 19.2187 21.3624C20.2935 20.7703 21.2046 20.0465 21.9046 19.0566C22.6032 18.0687 23.1384 16.7496 23.3628 14.8987C23.8487 10.8917 22.1904 6.93665 19.2711 5.14708Z" fill="#B5C0FF"/>
</svg>
