<svg width="32" height="32" viewBox="0 0 32 32" fill="none" xmlns="http://www.w3.org/2000/svg">
<path d="M16 24.3333C15.4478 24.3333 15 24.7811 15 25.3333C15 25.8856 15.4478 26.3333 16 26.3333H24C25.2887 26.3333 26.3334 25.2887 26.3334 24V8.00001C26.3334 6.71134 25.2887 5.66667 24 5.66667H16C15.4478 5.66667 15 6.11439 15 6.66667C15 7.21896 15.4478 7.66667 16 7.66667L24 7.66667C24.1841 7.66667 24.3334 7.81591 24.3334 8.00001V24C24.3334 24.1841 24.1841 24.3333 24 24.3333H16Z" fill="white"/>
<path fill-rule="evenodd" clip-rule="evenodd" d="M19.3375 19.1536C20.258 19.1536 21.0041 18.4074 21.0041 17.487V14.4996C21.0041 13.5791 20.258 12.8329 19.3375 12.8329L13.1873 12.8329C13.1786 12.735 13.1695 12.6372 13.16 12.5393L13.088 11.7981C12.9781 10.6673 11.7773 9.99011 10.7527 10.4811C8.57376 11.5254 6.60117 12.9544 4.92985 14.6994L4.79758 14.8375C4.17864 15.4837 4.17864 16.5028 4.79758 17.1491L4.92985 17.2872C6.60117 19.0322 8.57376 20.4612 10.7527 21.5054C11.7773 21.9964 12.9781 21.3192 13.088 20.1884L13.16 19.4472C13.1695 19.3494 13.1786 19.2515 13.1873 19.1536H19.3375ZM12.2602 17.1536C11.905 17.1536 11.5911 17.3393 11.4135 17.6213C11.327 17.7586 11.2729 17.9188 11.2621 18.0914C11.2379 18.4792 11.207 18.8667 11.1694 19.2538L11.1485 19.4689C9.76711 18.757 8.48426 17.8704 7.33121 16.8319C7.03207 16.5624 6.74167 16.2828 6.46054 15.9933C7.82526 14.5879 9.40873 13.4143 11.1485 12.5177L11.1694 12.7328C11.207 13.1198 11.2379 13.5074 11.2621 13.8952C11.295 14.4223 11.7321 14.8329 12.2602 14.8329H19.0041V17.1536H12.2602Z" fill="white"/>
</svg>
